<svg width="60" height="60" viewBox="0 0 60 60" fill="none" xmlns="http://www.w3.org/2000/svg">
<path d="M30 60C46.5685 60 60 46.5685 60 30C60 13.4315 46.5685 0 30 0C13.4315 0 0 13.4315 0 30C0 46.5685 13.4315 60 30 60Z" fill="#E2342D"/>
<path d="M30.5326 34.1333L44.1826 30.9L39.9326 25L30.7659 27.05C30.5159 27.1 30.2659 27.1333 29.9992 27.1333C29.7492 27.1333 29.4826 27.1 29.2492 27.05L19.9492 25L15.6992 30.9L29.4826 34.1333C29.8159 34.2167 30.1826 34.2167 30.5326 34.1333Z" fill="white"/>
<path d="M30.4327 25.5656L38.9494 23.6656L30.5327 12.0156C30.2327 11.599 29.5994 11.599 29.2994 12.0156L20.916 23.649L29.566 25.5656C29.8493 25.6323 30.1494 25.6323 30.4327 25.5656Z" fill="white"/>
<path d="M49.8827 38.7835L45.1494 32.2168L30.8827 35.6001C30.5994 35.6668 30.2994 35.7001 29.9994 35.7001C29.6994 35.7001 29.4161 35.6668 29.1327 35.6001L14.7327 32.2168L10.1161 38.6335C9.86606 38.9668 10.0327 39.4501 10.4327 39.5668L29.2494 45.0168C29.6827 45.1501 30.1494 45.1501 30.5827 45.0168L49.5494 39.7001C49.9661 39.6168 50.1327 39.1335 49.8827 38.7835Z" fill="white"/>
</svg>
